<?xml version="1.0" encoding="UTF-8" standalone="no"?>
<!-- Created with Inkscape (http://www.inkscape.org/) -->

<svg
   xmlns:dc="http://purl.org/dc/elements/1.1/"
   xmlns:cc="http://creativecommons.org/ns#"
   xmlns:rdf="http://www.w3.org/1999/02/22-rdf-syntax-ns#"
   xmlns:svg="http://www.w3.org/2000/svg"
   xmlns="http://www.w3.org/2000/svg"
   xmlns:sodipodi="http://sodipodi.sourceforge.net/DTD/sodipodi-0.dtd"
   xmlns:inkscape="http://www.inkscape.org/namespaces/inkscape"
   width="200"
   height="200"
   viewBox="0 0 52.916666 52.916666"
   version="1.1"
   id="svg8"
   inkscape:version="0.92.5 (2060ec1f9f, 2020-04-08)"
   sodipodi:docname="logo_rotated.svg">
  <defs
     id="defs2" />
  <sodipodi:namedview
     id="base"
     pagecolor="#ffffff"
     bordercolor="#666666"
     borderopacity="1.0"
     inkscape:pageopacity="0.0"
     inkscape:pageshadow="2"
     inkscape:zoom="2.8"
     inkscape:cx="25.751419"
     inkscape:cy="77.874279"
     inkscape:document-units="mm"
     inkscape:current-layer="layer1"
     showgrid="true"
     units="px"
     inkscape:window-width="1848"
     inkscape:window-height="1136"
     inkscape:window-x="72"
     inkscape:window-y="27"
     inkscape:window-maximized="1">
    <inkscape:grid
       type="xygrid"
       id="grid4558" />
  </sodipodi:namedview>
  <metadata
     id="metadata5">
    <rdf:RDF>
      <cc:Work
         rdf:about="">
        <dc:format>image/svg+xml</dc:format>
        <dc:type
           rdf:resource="http://purl.org/dc/dcmitype/StillImage" />
        <dc:title></dc:title>
      </cc:Work>
    </rdf:RDF>
  </metadata>
  <g
     inkscape:label="Layer 1"
     inkscape:groupmode="layer"
     id="layer1"
     transform="translate(0,-244.08334)">
    <g
       style="fill:#05bf85;fill-opacity:1;stroke:#05bf85;stroke-width:1;stroke-linecap:round;stroke-linejoin:round;stroke-miterlimit:4;stroke-dasharray:none;stroke-opacity:1"
       id="g4581"
       transform="matrix(1.273941,1.273941,1.273941,-1.273941,-351.2215,580.28553)">
      <path
         id="path4579"
         style="fill:#05bf85;fill-opacity:1;stroke:#05bf85;stroke-width:0.40000001;stroke-linecap:round;stroke-linejoin:round;stroke-miterlimit:4;stroke-dasharray:none;stroke-opacity:1"
         d="m 25.135417,252.02084 c 0,0 0.325184,-0.37724 0.970936,-0.49488 0.108315,-0.0197 0.225649,-0.0322 0.351981,-0.0343 0.879495,-0.0148 1.322917,0.52917 1.322917,0.52917 -0.903876,4.62587 -1.234628,10.1408 -1.322917,15.875 -0.08829,-5.7342 -0.419042,-11.24913 -1.322917,-15.875 z"
         inkscape:connector-curvature="0"
         sodipodi:nodetypes="cscccc" />
    </g>
    <ellipse
       id="path3713"
       cx="145.72948"
       cy="-191.1691"
       rx="16.501919"
       ry="6.2660084"
       style="fill:#94eacd;fill-opacity:1;stroke-width:0.11260245"
       transform="matrix(0.73860445,0.67413905,0.42915571,-0.90323052,0,0)" />
    <path
       cx="26.458334"
       cy="270.54169"
       r="1.984375"
       id="path4547"
       style="fill:#05bf85;fill-opacity:1;stroke-width:0.28316122" />
    <path
       id="path4549"
       style="fill:#424242;fill-opacity:1;stroke-width:0.5274303"
       sodipodi:type="arc"
       sodipodi:cx="17.433588"
       sodipodi:cy="269.92719"
       sodipodi:rx="3.6961963"
       sodipodi:ry="3.6961963"
       sodipodi:start="3.9269908"
       sodipodi:end="0.78539816"
       d="m 14.819983,267.31358 a 3.6961963,3.6961963 0 0 1 3.570251,-0.95665 3.6961963,3.6961963 0 0 1 2.613606,2.61361 3.6961963,3.6961963 0 0 1 -0.956646,3.57025 l -2.613606,-2.6136 z"
       transform="matrix(0.99948006,0.03224283,0.03224283,0.99948006,0,0)" />
    <ellipse
       transform="matrix(0.73860445,0.67413905,0.42915571,-0.90323052,0,0)"
       style="fill:#424242;fill-opacity:1;stroke-width:0.0258008"
       ry="1.4357412"
       rx="3.7811129"
       cy="-190.35829"
       cx="145.97661"
       id="ellipse4560" />
    <g
       id="g4577"
       style="fill:#05bf85;fill-opacity:1;stroke:#05bf85;stroke-width:1;stroke-linecap:round;stroke-linejoin:round;stroke-miterlimit:4;stroke-dasharray:none;stroke-opacity:1"
       transform="matrix(1.273941,1.273941,-1.273941,1.273941,336.73847,-107.67444)">
      <path
         sodipodi:nodetypes="cscccc"
         inkscape:connector-curvature="0"
         d="m 25.135417,252.02084 c 0,0 0.325184,-0.37724 0.970936,-0.49488 0.108315,-0.0197 0.225649,-0.0322 0.351981,-0.0343 0.879495,-0.0148 1.322917,0.52917 1.322917,0.52917 -0.903876,4.62587 -1.234628,10.1408 -1.322917,15.875 -0.08829,-5.7342 -0.419042,-11.24913 -1.322917,-15.875 z"
         style="fill:#05bf85;fill-opacity:1;stroke:#05bf85;stroke-width:0.40000001;stroke-linecap:round;stroke-linejoin:round;stroke-miterlimit:4;stroke-dasharray:none;stroke-opacity:1"
         id="path4570" />
    </g>
  </g>
</svg>
